<svg id="Layer_1" enable-background="new 0 0 472 472" height="512" viewBox="0 0 472 472" width="512" xmlns="http://www.w3.org/2000/svg"><path d="m399.696 314.651c-3.552-2.628-4.301-7.638-1.673-11.189 2.629-3.551 7.638-4.301 11.189-1.673 12.294 9.096 17.144 8.056 18.338 7.521 2.963-1.324 4.826-7.867 6.469-13.639 2.605-9.152 5.847-20.542 16.607-24.856 4.101-1.643 8.758.347 10.403 4.448s-.347 8.758-4.448 10.403c-3.475 1.394-5.355 7.999-7.173 14.386-2.601 9.138-5.549 19.496-15.32 23.863-11.42 5.121-24.326-1.816-34.392-9.264z" fill="#ff8ca5"/><path d="m284.944 183c137.89 0 160.15 173.9 66.61 229.88l-7.49 43.21c-1.6 9.2-9.57 15.91-18.9 15.91h-48.92c-9.46 0-17.5-6.89-18.95-16.24l-2.948-18.988c-.605-3.898-3.961-6.772-7.905-6.772h-52.653c-3.944 0-7.3 2.875-7.905 6.772l-2.948 18.988c-1.45 9.35-9.5 16.24-18.96 16.24h-49.29c-9.32 0-17.29-6.7-18.9-15.88l-7.219-41.373c-.367-2.105-1.555-3.986-3.319-5.19-23.578-16.101-38.988-40.114-46.203-66.557h-12.65c-8.837 0-16-7.163-16-16v-35c0-8.837 7.163-16 16-16h11.79c4.25-18.24 12.27-35.5 24.06-50.1-1.69-8.94-3.76-17.82-6.23-26.69-3.58-12.87 9.24-24.32 21.54-19.1 8.25 3.49 15.79 8.84 21.94 15.9 16.58-8.23 36.34-13.01 59.29-13.01z" fill="#ffa4b8"/><path d="m126.128 429.874c1.835 10.389 3.155 18.013 4.126 23.66 1.659 9.653-5.776 18.465-15.57 18.465-9.32 0-17.29-6.7-18.9-15.88l-7.219-41.373c-.367-2.105-1.555-3.986-3.319-5.19-23.577-16.1-38.987-40.113-46.202-66.556h-12.65c-8.837 0-16-7.163-16-16v-35c0-8.837 7.163-16 16-16h11.79c4.25-18.24 12.27-35.5 24.06-50.1-1.69-8.94-3.76-17.82-6.23-26.69-3.58-12.87 9.24-24.32 21.54-19.1 14.988 6.343 24.388 52.597 16.179 65.478-29.745 46.679-26.632 135.382 26.231 174.328 3.258 2.401 5.46 5.973 6.164 9.958z" fill="#ffbfcb"/><path d="m293.642 183.236c7.567.416 7.23 11.72-.349 11.751-20.262.083-50.362.117-97.51.013-20.04-.044-37.648 3.645-52.83 10.048-14.482 6.109-21.648-18.247-5.9-20.527 18.261-2.644 22.239-1.288 147.89-1.521 2.953-.005 5.853.08 8.699.236z" fill="#ffbfcb"/><path d="m96.394 275c-4.418 0-8-3.582-8-8v-9c0-4.418 3.582-8 8-8s8 3.582 8 8v9c0 4.418-3.582 8-8 8z" fill="#585966"/><path d="m72.006 349.073c-1.162-4.263 1.352-8.66 5.615-9.822 14.189-3.867 24.769-14.251 29.32-27.296 1.455-4.172 6.017-6.374 10.188-4.919 4.172 1.455 6.374 6.017 4.919 10.188-6.369 18.26-21.186 32.276-40.22 37.464-4.263 1.162-8.661-1.351-9.822-5.615z" fill="#ff8ca5"/><path d="m311.394 282h-138c-4.418 0-8-3.582-8-8s3.582-8 8-8h138c4.418 0 8 3.582 8 8s-3.582 8-8 8z" fill="#ff8ca5"/><circle cx="242.394" cy="155" fill="#ffe773" r="81"/><circle cx="242.394" cy="155" fill="#fe9" r="44"/><g fill="#cbe3fa"><path d="m161.394 82c-4.418 0-8-3.582-8-8v-66c0-4.418 3.582-8 8-8s8 3.582 8 8v66c0 4.418-3.582 8-8 8z"/><path d="m215.394 55c-4.418 0-8-3.582-8-8v-21c0-4.418 3.582-8 8-8s8 3.582 8 8v21c0 4.418-3.582 8-8 8z"/><path d="m323.394 82c-4.418 0-8-3.582-8-8v-66c0-4.418 3.582-8 8-8s8 3.582 8 8v66c0 4.418-3.582 8-8 8z"/><path d="m269.394 55c-4.418 0-8-3.582-8-8v-31c0-4.418 3.582-8 8-8s8 3.582 8 8v31c0 4.418-3.582 8-8 8z"/></g><path d="m188.309 197.8c2.958 6.672-6.02 11.991-10.437 6.181-10.345-13.607-16.483-30.587-16.478-49.002.012-44.567 36.677-81.214 81.438-80.977 7.204.038 8.403 10.396 1.387 12.031-50.462 11.754-76.145 66.131-55.91 111.767z" fill="#fe9"/><path d="m219.444 174.6c1.699 7.635-8.512 12.136-13.022 5.746-5.451-7.723-8.478-17.281-7.973-27.565 1.112-22.642 19.704-41.061 42.568-41.76 7.972-.244 10.386 10.613 3.134 13.932-18.894 8.646-29.248 29.237-24.707 49.647z" fill="#fff8d6"/><path d="m287.624 457.406c1.838 7.419-3.737 14.594-11.38 14.594-9.46 0-17.5-6.89-18.95-16.24l-2.567-16.532c-.753-4.85 2.998-9.228 7.905-9.228h13.808c3.944 0 7.3 2.875 7.905 6.772.001 0 3.147 20.102 3.279 20.634z" fill="#ffbfcb"/></svg>