<svg id="Layer_3" enable-background="new 0 0 64 64" height="512" viewBox="0 0 64 64" width="512" xmlns="http://www.w3.org/2000/svg"><g><path d="m45 42v-11c0-7.18-5.82-13-13-13s-13 5.82-13 13v11c-1.105 0-2 .895-2 2s.895 2 2 2h26c1.105 0 2-.895 2-2s-.895-2-2-2z" fill="#976947"/><path d="m32 18c-7.18 0-13 5.82-13 13v8.811c2.223 1.391 4.778 2.189 7.5 2.189 8.56 0 15.5-7.835 15.5-17.5 0-.646-.036-1.282-.096-1.91-2.385-2.805-5.934-4.59-9.904-4.59z" fill="#c18e59"/><circle cx="10" cy="54" fill="#f5b953" r="8"/><circle cx="10" cy="54" fill="#fff" r="4"/><circle cx="54" cy="54" fill="#f5b953" r="8"/><circle cx="54" cy="54" fill="#fff" r="4"/><circle cx="10" cy="10" fill="#f5b953" r="8"/><circle cx="10" cy="10" fill="#fff" r="4"/><circle cx="54" cy="10" fill="#f5b953" r="8"/><circle cx="54" cy="10" fill="#fff" r="4"/><g fill="#8892a0"><path d="m53 18v13h-5v2h5v13h2v-28z"/><path d="m11 18h-2v28h2v-13h5v-2h-5z"/></g><path d="m30 16-3-8 5 2 5-2-3 8" fill="#976947"/><path d="m32 31c-1.103 0-2-.897-2-2s.897-2 2-2 2 .897 2 2h2c0-1.858-1.28-3.411-3-3.858v-2.142h-2v2.142c-1.72.447-3 2-3 3.858 0 2.206 1.794 4 4 4 1.103 0 2 .897 2 2s-.897 2-2 2-2-.897-2-2h-2c0 1.858 1.28 3.411 3 3.858v2.142h2v-2.142c1.72-.447 3-2 3-3.858 0-2.206-1.794-4-4-4z" fill="#4d5d7a"/><g><path d="m26 15h12v2h-12z" fill="#c18e59"/></g><g><path d="m54 19c-4.962 0-9-4.038-9-9s4.038-9 9-9 9 4.038 9 9-4.038 9-9 9zm0-16c-3.86 0-7 3.14-7 7s3.14 7 7 7 7-3.14 7-7-3.14-7-7-7z" fill="#f9d18b"/></g><g><path d="m10 19c-4.962 0-9-4.038-9-9s4.038-9 9-9 9 4.038 9 9-4.038 9-9 9zm0-16c-3.86 0-7 3.14-7 7s3.14 7 7 7 7-3.14 7-7-3.14-7-7-7z" fill="#f9d18b"/></g><g><path d="m54 63c-4.962 0-9-4.038-9-9s4.038-9 9-9 9 4.038 9 9-4.038 9-9 9zm0-16c-3.86 0-7 3.14-7 7s3.14 7 7 7 7-3.14 7-7-3.14-7-7-7z" fill="#f9d18b"/></g><g fill="#4d5d7a"><path d="m55 7v-2h-2v2h-1c-.404 0-.769.244-.924.617-.155.374-.069.804.217 1.09l2.293 2.293h-2.586v2h2v2h2v-2h1c.404 0 .769-.244.924-.617.155-.374.069-.804-.217-1.09l-2.293-2.293h2.586v-2z"/><path d="m11 5h-2v2h-1c-.404 0-.769.244-.924.617-.155.374-.069.804.217 1.09l2.293 2.293h-2.586v2h2v2h2v-2h1c.404 0 .769-.244.924-.617.155-.374.069-.804-.217-1.09l-2.293-2.293h2.586v-2h-2z"/><path d="m55 49h-2v2h-1c-.404 0-.769.244-.924.617-.155.374-.069.804.217 1.09l2.293 2.293h-2.586v2h2v2h2v-2h1c.404 0 .769-.244.924-.617.155-.374.069-.804-.217-1.09l-2.293-2.293h2.586v-2h-2z"/><path d="m11 49h-2v2h-1c-.404 0-.769.244-.924.617-.155.374-.069.804.217 1.09l2.293 2.293h-2.586v2h2v2h2v-2h1c.404 0 .769-.244.924-.617.155-.374.069-.804-.217-1.09l-2.293-2.293h2.586v-2h-2z"/></g><g><path d="m10 63c-4.962 0-9-4.038-9-9s4.038-9 9-9 9 4.038 9 9-4.038 9-9 9zm0-16c-3.86 0-7 3.14-7 7s3.14 7 7 7 7-3.14 7-7-3.14-7-7-7z" fill="#f9d18b"/></g></g></svg>