<svg height="464pt" viewBox="0 -16 464 464" width="464pt" xmlns="http://www.w3.org/2000/svg"><path d="m16 0h368c8.835938 0 16 7.164062 16 16v368c0 8.835938-7.164062 16-16 16h-368c-8.835938 0-16-7.164062-16-16v-368c0-8.835938 7.164062-16 16-16zm0 0" fill="#898890"/><path d="m424 0h40v400h-40zm0 0" fill="#e0e0e2"/><path d="m376 136h24v120h-24zm0 0" fill="#c6c5ca"/><path d="m40 400h64v32h-64zm0 0" fill="#2d2d30"/><path d="m304 400h64v32h-64zm0 0" fill="#2d2d30"/><path d="m376 40h64v96h-64zm0 0" fill="#acabb1"/><path d="m376 256h64v96h-64zm0 0" fill="#acabb1"/><path d="m80 336h-56v-32h168v32zm0 0" fill="#ffeb99"/><path d="m40 336h160v32h-176v-32zm0 0" fill="#ffda44"/><path d="m256 336h120v32h-176v-32zm0 0" fill="#ffeb99"/><path d="m280 304h88v32h-176v-32zm0 0" fill="#ffda44"/><path d="m312 304h-32c38.960938.003906 73.285156-25.613281 84.371094-62.964844 11.082031-37.351562-3.714844-77.546875-36.371094-98.796875v-70.238281h-64v-16h-240v-32h352v312h-8v-32zm0 0" fill="#3e3d42"/><path d="m24 56h240v176h-240zm0 0" fill="#a4e276"/><path d="m176 144c0 35.347656-28.652344 64-64 64s-64-28.652344-64-64 28.652344-64 64-64 64 28.652344 64 64zm0 0" fill="#ffda44"/><path d="m264 72v24c-22.089844 0-40-17.910156-40-40h40zm0 0" fill="#dcf4ca"/><path d="m264 72h64v80h-64zm0 0" fill="#91dc5a"/><path d="m328 72v40c-22.089844 0-40-17.910156-40-40zm0 0" fill="#dcf4ca"/><path d="m24 280h256v24h-256zm0 0" fill="#4e901e"/><path d="m24 232h216v24h-216zm0 0" fill="#4e901e"/><path d="m24 256h216v24h-216zm0 0" fill="#5eac24"/><path d="m368 216c0 35.128906-20.894531 66.894531-53.152344 80.808594-32.257812 13.910156-69.699218 7.304687-95.246094-16.808594-7.746093-7.261719-14.09375-15.882812-18.722656-25.441406-5.816406-12.023438-8.851562-25.203125-8.878906-38.558594-.042969-23.351562 9.214844-45.761719 25.726562-62.273438 16.511719-16.511718 38.921876-25.769531 62.273438-25.726562 48.601562 0 88 39.398438 88 88zm0 0" fill="#ffeb99"/><path d="m344 216c0 35.347656-28.652344 64-64 64s-64-28.652344-64-64 28.652344-64 64-64 64 28.652344 64 64zm0 0" fill="#ffda44"/><path d="m288 208v-16c4.417969 0 8 3.582031 8 8h16c0-13.253906-10.746094-24-24-24v-8h-16v8c-13.253906 0-24 10.746094-24 24s10.746094 24 24 24v16c-4.417969 0-8-3.582031-8-8h-16c0 13.253906 10.746094 24 24 24v8h16v-8c13.253906 0 24-10.746094 24-24s-10.746094-24-24-24zm-24-8c0-4.417969 3.582031-8 8-8v16c-4.417969 0-8-3.582031-8-8zm24 40v-16c4.417969 0 8 3.582031 8 8s-3.582031 8-8 8zm0 0" fill="#fff"/><path d="m400 64h16v48h-16zm0 0" fill="#787680"/><path d="m400 280h16v48h-16zm0 0" fill="#787680"/><path d="m120 136v-16c4.417969 0 8 3.582031 8 8h16c0-13.253906-10.746094-24-24-24v-8h-16v8c-13.253906 0-24 10.746094-24 24s10.746094 24 24 24v16c-4.417969 0-8-3.582031-8-8h-16c0 13.253906 10.746094 24 24 24v8h16v-8c13.253906 0 24-10.746094 24-24s-10.746094-24-24-24zm-24-8c0-4.417969 3.582031-8 8-8v16c-4.417969 0-8-3.582031-8-8zm24 40v-16c4.417969 0 8 3.582031 8 8s-3.582031 8-8 8zm0 0" fill="#fff"/></svg>