<svg height="512pt" viewBox="0 0 512 512" width="512pt" xmlns="http://www.w3.org/2000/svg"><path d="m512 256c0 141.382812-114.617188 256-256 256-.5 0-.996094 0-1.496094-.011719-140.6875-.792969-254.503906-115.105469-254.503906-255.988281s113.816406-255.195312 254.503906-255.9882812c.5-.0117188.996094-.0117188 1.496094-.0117188 141.382812 0 256 114.617188 256 256zm0 0" fill="#ff7c48"/><path d="m512 256c0 141.382812-114.617188 256-256 256-.5 0-.996094 0-1.496094-.011719v-511.9765622c.5-.0117188.996094-.0117188 1.496094-.0117188 141.382812 0 256 114.617188 256 256zm0 0" fill="#ff6426"/><path d="m254.503906 66.207031c-104.652344 0-189.792968 85.140625-189.792968 189.792969s85.140624 189.792969 189.792968 189.792969c104.65625 0 189.796875-85.140625 189.796875-189.792969s-85.140625-189.792969-189.796875-189.792969zm0 0" fill="#fff1b6"/><path d="m254.503906 66.207031v379.585938c104.65625 0 189.796875-85.140625 189.796875-189.792969s-85.140625-189.792969-189.796875-189.792969zm0 0" fill="#ffe477"/><path d="m512 256c0 5.125-.152344 10.207031-.445312 15.246094h-241.800782v240.386718c-4.554687.246094-9.140625.367188-13.753906.367188-.5 0-.996094 0-1.496094-.011719-5.121094-.027343-10.203125-.203125-15.246094-.539062v-240.203125h-238.800781c-.304687-5.039063-.457031-10.121094-.457031-15.246094s.152344-10.207031.457031-15.246094h238.800781v-240.203125c5.042969-.335937 10.125-.5117185 15.246094-.5390622.5-.0117188.996094-.0117188 1.496094-.0117188 4.613281 0 9.199219.121094 13.753906.367188v240.386718h241.800782c.292968 5.039063.445312 10.121094.445312 15.246094zm0 0" fill="#ffb99d"/><path d="m512 256c0 5.125-.152344 10.207031-.445312 15.246094h-241.800782v240.386718c-4.554687.246094-9.140625.367188-13.753906.367188-.5 0-.996094 0-1.496094-.011719v-511.9765622c.5-.0117188.996094-.0117188 1.496094-.0117188 4.613281 0 9.199219.121094 13.753906.367188v240.386718h241.800782c.292968 5.039063.445312 10.121094.445312 15.246094zm0 0" fill="#ffa17b"/><path d="m360.832031 252.921875c0 58.722656-47.605469 106.328125-106.328125 106.328125-58.71875 0-106.324218-47.605469-106.324218-106.328125s47.605468-106.324219 106.324218-106.324219c58.722656 0 106.328125 47.601563 106.328125 106.324219zm0 0" fill="#ffd422"/><path d="m254.503906 146.601562v212.644532c58.722656 0 106.324219-47.601563 106.324219-106.320313 0-58.722656-47.601563-106.324219-106.324219-106.324219zm0 0" fill="#eebf00"/><path d="m254.503906 374.496094c-67.03125 0-121.570312-54.539063-121.570312-121.574219s54.535156-121.574219 121.570312-121.574219c67.039063 0 121.574219 54.539063 121.574219 121.574219s-54.539063 121.574219-121.574219 121.574219zm0-212.652344c-50.21875 0-91.078125 40.859375-91.078125 91.078125 0 50.222656 40.859375 91.078125 91.078125 91.078125 50.222656 0 91.082032-40.855469 91.082032-91.078125 0-50.21875-40.859376-91.078125-91.082032-91.078125zm0 0" fill="#ff7c48"/><path d="m239.660156 233.296875h41.199219c8.421875 0 15.25-6.824219 15.25-15.246094s-6.828125-15.246093-15.25-15.246093h-10.882813v-5.355469c0-8.421875-6.828124-15.25-15.246093-15.25-8.421875 0-15.25 6.828125-15.25 15.25v5.359375c-18.40625.09375-33.355469 15.097656-33.355469 33.527344 0 18.488281 15.042969 33.53125 33.535156 33.53125h22.914063c4.019531 0 4.023437 6.078124 0 6.078124h-40.882813c-8.421875 0-15.246094 6.828126-15.246094 15.246094 0 8.421875 6.824219 15.25 15.246094 15.25h17.789063v5.355469c0 8.417969 6.828125 15.246094 15.25 15.246094 8.417969 0 15.246093-6.828125 15.246093-15.246094v-6.191406c14.9375-3.378907 26.132813-16.75 26.132813-32.699219 0-18.488281-15.042969-33.53125-33.535156-33.53125h-22.914063c-1.675781 0-3.039062-1.363281-3.039062-3.039062 0-1.675782 1.363281-3.039063 3.039062-3.039063zm0 0" fill="#ff7c48"/><g fill="#ff6426"><path d="m296.109375 272.90625c0 15.949219-11.191406 29.316406-26.136719 32.703125v6.1875c0 8.417969-6.820312 15.25-15.246094 15.25-.070312 0-.152343 0-.222656-.011719v-51.085937h8.070313c4.023437 0 4.023437-6.082031 0-6.082031h-8.070313v-30.492188h8.070313c18.488281 0 33.535156 15.042969 33.535156 33.53125zm0 0"/><path d="m280.859375 233.296875h-26.355469v-51.089844c.070313-.007812.152344-.007812.222656-.007812 8.425782 0 15.246094 6.828125 15.246094 15.246093v5.355469h10.886719c8.417969 0 15.25 6.832031 15.25 15.246094 0 8.429687-6.832031 15.25-15.25 15.25zm0 0"/><path d="m254.503906 131.351562v30.496094c50.222656 0 91.078125 40.851563 91.078125 91.078125 0 50.222657-40.855469 91.074219-91.078125 91.074219v30.496094c67.035156 0 121.570313-54.535156 121.570313-121.570313 0-67.039062-54.535157-121.574219-121.570313-121.574219zm0 0"/></g></svg>